<svg id="canvas" xmlns="http://www.w3.org/2000/svg" version="1.1" width="1346" height="748" viewBox="0 0 1346 748" fillrule="non-zero" onkeydown="exportSVG()">
				<polygon id="p1" class="triangle" points="0,0 1346,0 0,748" fill="rgb(61, 248, 183)"/>
				<polygon id="p2" class="triangle" points="1303.5,23 1346,23 1346,0" fill="rgb(249, 113, 59)"/>
			<polygon id="p3" class="triangle" fill="rgb(89, 167, 158)" points="21,748 10.5,742 0,748"/><polygon id="p4" class="triangle" fill="rgb(55, 226, 167)" points="1009.5,748 1177.5,654.5 1346,748"/><polygon id="p5" class="triangle" fill="rgb(62, 238, 167)" points="1009.5,561 1346,561 1346,748"/><polygon id="p6" class="triangle" fill="rgb(237, 83, 63)" points="694,374 683.5,368 673,374"/><polygon id="p7" class="triangle" fill="rgb(43, 236, 173)" points="673,385.5 662,379.5 673,374"/><polygon id="p8" class="triangle" fill="rgb(59, 244, 169)" points="694,385.5 694,374 673,374"/><polygon id="p9" class="triangle" fill="rgb(80, 161, 135)" points="694,385.5 673,385.5 673,374"/><polygon id="p10" class="triangle" fill="rgb(42, 230, 179)" points="1177.5,280.5 1346,280.5 1346,374"/><polygon id="p11" class="triangle" fill="rgb(47, 231, 183)" points="1051,163.5 1051,187 1009.5,187"/><polygon id="p12" class="triangle" fill="rgb(247, 137, 45)" points="1346,140 1303.5,163.5 1346,187"/><polygon id="p13" class="triangle" fill="rgb(250, 131, 58)" points="1219,69.5 1219,93 1177.5,93.5"/><polygon id="p14" class="triangle" fill="rgb(239, 102, 46)" points="1261.5,93 1219,116.5 1177.5,93.5"/><polygon id="p15" class="triangle" fill="rgb(63, 245, 181)" points="1346,116.5 1324.5,104.5 1346,93.5"/><polygon id="p16" class="triangle" fill="rgb(231, 77, 38)" points="1303.5,69.5 1346,69.5 1346,93.5"/><polygon id="p17" class="triangle" fill="rgb(51, 243, 190)" points="1303.5,69.5 1303.5,93 1346,93.5"/><polygon id="p18" class="triangle" fill="rgb(52, 235, 173)" points="1303.5,116.5 1303.5,93 1346,93.5"/><polygon id="p19" class="triangle" fill="rgb(49, 253, 181)" points="1303.5,69.5 1303.5,46 1261.5,46.5"/><polygon id="p20" class="triangle" fill="rgb(36, 224, 176)" points="1303.5,23 1303.5,46 1261.5,46.5"/><polygon id="p21" class="triangle" fill="rgb(70, 177, 148)" points="1303.5,69.5 1346,69.5 1346,46.5"/><polygon id="p22" class="triangle" fill="rgb(42, 249, 176)" points="1303.5,69.5 1303.5,46 1346,46.5"/><polygon id="p23" class="triangle" fill="rgb(249, 127, 54)" points="1303.5,23 1346,23 1346,46.5"/><polygon id="p24" class="triangle" fill="rgb(233, 101, 35)" points="1303.5,23 1303.5,46 1346,46.5"/><polygon id="p25" class="triangle" fill="rgb(73, 182, 154)" points="1303.5,163.5 1303.5,140 1261.5,140"/><polygon id="p26" class="triangle" fill="rgb(243, 115, 58)" points="1303.5,163.5 1303.5,140 1346,140"/><polygon id="p27" class="triangle" fill="rgb(55, 249, 185)" points="1346,140 1303.5,116.5 1261.5,140"/><polygon id="p28" class="triangle" fill="rgb(42, 233, 189)" points="1303.5,116.5 1261,116.5 1261.5,140"/><polygon id="p29" class="triangle" fill="rgb(252, 113, 41)" points="1303.5,116.5 1303.5,93 1261.5,93"/><polygon id="p30" class="triangle" fill="rgb(37, 236, 195)" points="1303.5,69.5 1261,69.5 1261.5,46.5"/><polygon id="p31" class="triangle" fill="rgb(224, 127, 34)" points="1303.5,116.5 1346,116.5 1346,140"/><polygon id="p32" class="triangle" fill="rgb(86, 161, 155)" points="1346,116.5 1324.5,104.5 1303.5,116.5"/><polygon id="p33" class="triangle" fill="rgb(40, 226, 168)" points="1303.5,69.5 1303.5,93 1261.5,93"/><polygon id="p34" class="triangle" fill="rgb(50, 244, 193)" points="1303.5,69.5 1261,69.5 1261.5,93"/><polygon id="p35" class="triangle" fill="rgb(44, 227, 184)" points="1219,69.5 1261,69.5 1261.5,46.5"/><polygon id="p36" class="triangle" fill="rgb(250, 124, 44)" points="1219,69.5 1261,69.5 1261.5,93"/><polygon id="p37" class="triangle" fill="rgb(62, 246, 175)" points="1219,69.5 1219,93 1261.5,93"/><polygon id="p38" class="triangle" fill="rgb(77, 166, 141)" points="1282,104.5 1261,104.5 1261.5,93"/><polygon id="p39" class="triangle" fill="rgb(224, 92, 54)" points="1261,116.5 1282,104.5 1303.5,116.5"/><polygon id="p40" class="triangle" fill="rgb(85, 189, 132)" points="1261,104.5 1271.5,110 1261,116.5"/><polygon id="p41" class="triangle" fill="rgb(56, 239, 192)" points="1219,116.5 1261,116.5 1261.5,140"/><polygon id="p42" class="triangle" fill="rgb(230, 78, 62)" points="1219,116.5 1261,116.5 1261.5,93"/><polygon id="p43" class="triangle" fill="rgb(62, 226, 196)" points="1271.5,110 1271.5,104 1282,104.5"/><polygon id="p44" class="triangle" fill="rgb(253, 83, 57)" points="1271.5,110 1271.5,104 1261,104.5"/><polygon id="p45" class="triangle" fill="rgb(53, 249, 176)" points="1324.5,362 1324.5,374 1346,374"/><polygon id="p46" class="triangle" fill="rgb(240, 131, 59)" points="1009,210 988,198.5 1009.5,187"/><polygon id="p47" class="triangle" fill="rgb(41, 234, 177)" points="988,362 988,374 1009.5,374"/><polygon id="p48" class="triangle" fill="rgb(87, 186, 150)" points="841,374 757,327 841,280.5"/><polygon id="p49" class="triangle" fill="rgb(251, 134, 44)" points="757,327 757,374 841,374"/><polygon id="p50" class="triangle" fill="rgb(253, 135, 37)" points="757,374 715,350.5 757,327"/><polygon id="p51" class="triangle" fill="rgb(241, 137, 46)" points="715,350.5 715,374 757,374"/><polygon id="p52" class="triangle" fill="rgb(246, 89, 58)" points="715,374 694,362 715,350.5"/><polygon id="p53" class="triangle" fill="rgb(232, 134, 42)" points="694,362 694,374 715,374"/><polygon id="p54" class="triangle" fill="rgb(237, 86, 58)" points="694,374 683.5,368 694,362"/><polygon id="p55" class="triangle" fill="rgb(238, 103, 57)" points="1051,210 1009,210 1009.5,187"/><polygon id="p56" class="triangle" fill="rgb(63, 233, 171)" points="1030,374 1019.5,368 1009.5,374"/><polygon id="p57" class="triangle" fill="rgb(245, 88, 55)" points="1177.5,374 1261.5,327 1177.5,280.5"/><polygon id="p58" class="triangle" fill="rgb(41, 248, 183)" points="1261.5,327 1261.5,374 1177.5,374"/><polygon id="p59" class="triangle" fill="rgb(230, 81, 37)" points="1261.5,374 1303.5,350.5 1261.5,327"/><polygon id="p60" class="triangle" fill="rgb(92, 174, 154)" points="1303.5,350.5 1303.5,374 1261.5,374"/><polygon id="p61" class="triangle" fill="rgb(64, 162, 135)" points="1303.5,374 1324.5,362 1303.5,350.5"/><polygon id="p62" class="triangle" fill="rgb(252, 101, 43)" points="1324.5,362 1324.5,374 1303.5,374"/><polygon id="p63" class="triangle" fill="rgb(226, 78, 53)" points="1030,362 1009,362 1009.5,374"/><polygon id="p64" class="triangle" fill="rgb(239, 80, 57)" points="1009,280.5 1093,233.5 1177.5,280.5"/><polygon id="p65" class="triangle" fill="rgb(80, 175, 156)" points="1093,233.5 1009,233.5 1009,280.5"/><polygon id="p66" class="triangle" fill="rgb(87, 188, 157)" points="1009,233.5 1051,210 1093,233.5"/><polygon id="p67" class="triangle" fill="rgb(246, 79, 52)" points="1051,210 1009,210 1009,233.5"/><polygon id="p68" class="triangle" fill="rgb(45, 240, 173)" points="988,362 1009,362 1009.5,374"/><polygon id="p69" class="triangle" fill="rgb(93, 189, 160)" points="1009,280.5 925,233.5 841,280.5"/><polygon id="p70" class="triangle" fill="rgb(224, 90, 52)" points="925,233.5 1009,233.5 1009,280.5"/><polygon id="p71" class="triangle" fill="rgb(235, 98, 47)" points="1009,233.5 967,210 925,233.5"/><polygon id="p72" class="triangle" fill="rgb(68, 183, 133)" points="967,210 1009,210 1009,233.5"/><polygon id="p73" class="triangle" fill="rgb(38, 245, 189)" points="1009,210 988,198.5 967,210"/><polygon id="p74" class="triangle" fill="rgb(226, 119, 50)" points="1009,280.5 925,327 841,280.5"/><polygon id="p75" class="triangle" fill="rgb(233, 82, 42)" points="925,327 1009,327 1009,280.5"/><polygon id="p76" class="triangle" fill="rgb(227, 117, 48)" points="1009,327 967,350.5 925,327"/><polygon id="p77" class="triangle" fill="rgb(89, 181, 135)" points="967,350.5 1009,350.5 1009,327"/><polygon id="p78" class="triangle" fill="rgb(226, 85, 49)" points="1009,350.5 988,362 967,350.5"/><polygon id="p79" class="triangle" fill="rgb(35, 229, 174)" points="988,362 1009,362 1009,350.5"/><polygon id="p80" class="triangle" fill="rgb(239, 75, 46)" points="1009,280.5 1093,327 1177.5,280.5"/><polygon id="p81" class="triangle" fill="rgb(243, 109, 47)" points="1093,327 1009,327 1009,280.5"/><polygon id="p82" class="triangle" fill="rgb(57, 253, 179)" points="1009,327 1051,350.5 1093,327"/><polygon id="p83" class="triangle" fill="rgb(250, 80, 58)" points="1051,350.5 1009,350.5 1009,327"/><polygon id="p84" class="triangle" fill="rgb(232, 80, 62)" points="1009,350.5 1030,362 1051,350.5"/><polygon id="p85" class="triangle" fill="rgb(238, 82, 38)" points="1030,362 1009,362 1009,350.5"/><polygon id="p86" class="triangle" fill="rgb(53, 235, 172)" points="1177.5,374 1093,327 1177.5,280.5"/><polygon id="p87" class="triangle" fill="rgb(249, 92, 47)" points="1093,327 1093,374 1177.5,374"/><polygon id="p88" class="triangle" fill="rgb(43, 249, 186)" points="1093,374 1051,350.5 1093,327"/><polygon id="p89" class="triangle" fill="rgb(226, 79, 49)" points="1051,350.5 1051,374 1093,374"/><polygon id="p90" class="triangle" fill="rgb(34, 235, 182)" points="1051,374 1030,362 1051,350.5"/><polygon id="p91" class="triangle" fill="rgb(253, 124, 35)" points="1030,362 1030,374 1051,374"/><polygon id="p92" class="triangle" fill="rgb(86, 181, 150)" points="1030,374 1019.5,368 1030,362"/><polygon id="p93" class="triangle" fill="rgb(241, 129, 61)" points="841,374 925,327 841,280.5"/><polygon id="p94" class="triangle" fill="rgb(65, 176, 158)" points="925,327 925,374 841,374"/><polygon id="p95" class="triangle" fill="rgb(234, 125, 49)" points="925,374 967,350.5 925,327"/><polygon id="p96" class="triangle" fill="rgb(233, 135, 47)" points="967,350.5 967,374 925,374"/><polygon id="p97" class="triangle" fill="rgb(78, 164, 149)" points="967,374 988,362 967,350.5"/><polygon id="p98" class="triangle" fill="rgb(80, 176, 161)" points="988,362 988,374 967,374"/><polygon id="p99" class="triangle" fill="rgb(61, 253, 177)" points="651.5,736 651.5,748 673,748"/><polygon id="p100" class="triangle" fill="rgb(67, 179, 139)" points="336.5,748 168,654.5 336.5,561"/><polygon id="p101" class="triangle" fill="rgb(245, 79, 39)" points="168,654.5 168,748 336.5,748"/><polygon id="p102" class="triangle" fill="rgb(78, 188, 136)" points="168,748 84,701 168,654.5"/><polygon id="p103" class="triangle" fill="rgb(37, 225, 192)" points="84,701 84,748 168,748"/><polygon id="p104" class="triangle" fill="rgb(251, 137, 45)" points="84,748 42,724.5 84,701"/><polygon id="p105" class="triangle" fill="rgb(38, 250, 183)" points="42,724.5 42,748 84,748"/><polygon id="p106" class="triangle" fill="rgb(81, 168, 156)" points="42,748 21,736 42,724.5"/><polygon id="p107" class="triangle" fill="rgb(238, 135, 35)" points="21,736 21,748 42,748"/><polygon id="p108" class="triangle" fill="rgb(253, 116, 45)" points="21,748 10.5,742 21,736"/><polygon id="p109" class="triangle" fill="rgb(67, 185, 160)" points="630.5,724.5 673,724.5 673,748"/><polygon id="p110" class="triangle" fill="rgb(241, 133, 41)" points="673,561 504.5,467.5 336.5,561"/><polygon id="p111" class="triangle" fill="rgb(70, 165, 153)" points="504.5,467.5 673,467.5 673,561"/><polygon id="p112" class="triangle" fill="rgb(233, 125, 42)" points="673,467.5 588.5,420.5 504.5,467.5"/><polygon id="p113" class="triangle" fill="rgb(50, 227, 182)" points="588.5,420.5 673,420.5 673,467.5"/><polygon id="p114" class="triangle" fill="rgb(244, 128, 35)" points="673,420.5 630.5,397 588.5,420.5"/><polygon id="p115" class="triangle" fill="rgb(65, 161, 145)" points="630.5,397 673,397 673,420.5"/><polygon id="p116" class="triangle" fill="rgb(235, 76, 40)" points="673,397 651.5,385.5 630.5,397"/><polygon id="p117" class="triangle" fill="rgb(72, 180, 132)" points="651.5,385.5 673,385.5 673,397"/><polygon id="p118" class="triangle" fill="rgb(229, 98, 48)" points="673,385.5 662,379.5 651.5,385.5"/><polygon id="p119" class="triangle" fill="rgb(72, 172, 146)" points="673,561 504.5,654.5 336.5,561"/><polygon id="p120" class="triangle" fill="rgb(246, 89, 62)" points="504.5,654.5 673,654.5 673,561"/><polygon id="p121" class="triangle" fill="rgb(234, 94, 36)" points="673,654.5 588.5,701 504.5,654.5"/><polygon id="p122" class="triangle" fill="rgb(64, 169, 151)" points="588.5,701 673,701 673,654.5"/><polygon id="p123" class="triangle" fill="rgb(39, 252, 179)" points="673,701 630.5,724.5 588.5,701"/><polygon id="p124" class="triangle" fill="rgb(226, 111, 58)" points="673,724.5 651.5,712.5 673,701"/><polygon id="p125" class="triangle" fill="rgb(241, 90, 57)" points="673,724.5 651.5,712.5 630.5,724.5"/><polygon id="p126" class="triangle" fill="rgb(230, 104, 50)" points="357,572.5 336,572.5 336.5,561"/><polygon id="p127" class="triangle" fill="rgb(87, 165, 153)" points="504.5,654.5 336,654.5 336.5,748"/><polygon id="p128" class="triangle" fill="rgb(46, 235, 167)" points="336,654.5 420,607.5 504.5,654.5"/><polygon id="p129" class="triangle" fill="rgb(73, 165, 161)" points="420,607.5 336,607.5 336,654.5"/><polygon id="p130" class="triangle" fill="rgb(81, 162, 160)" points="336,607.5 378,584 420,607.5"/><polygon id="p131" class="triangle" fill="rgb(240, 112, 41)" points="378,584 336,584 336,607.5"/><polygon id="p132" class="triangle" fill="rgb(224, 133, 36)" points="336,584 357,572.5 378,584"/><polygon id="p133" class="triangle" fill="rgb(226, 134, 34)" points="357,572.5 336,572.5 336,584"/><polygon id="p134" class="triangle" fill="rgb(245, 100, 39)" points="504.5,654.5 504.5,748 336.5,748"/><polygon id="p135" class="triangle" fill="rgb(227, 80, 62)" points="504.5,748 588.5,701 504.5,654.5"/><polygon id="p136" class="triangle" fill="rgb(41, 241, 181)" points="588.5,701 588.5,748 504.5,748"/><polygon id="p137" class="triangle" fill="rgb(228, 102, 49)" points="588.5,748 630.5,724.5 588.5,701"/><polygon id="p138" class="triangle" fill="rgb(90, 165, 137)" points="630.5,724.5 630.5,748 588.5,748"/><polygon id="p139" class="triangle" fill="rgb(249, 98, 42)" points="630.5,748 651.5,736 630.5,724.5"/><polygon id="p140" class="triangle" fill="rgb(81, 177, 155)" points="651.5,736 651.5,748 630.5,748"/><polygon id="p141" class="triangle" fill="rgb(252, 113, 62)" points="673,724.5 694,736 673,748"/><polygon id="p142" class="triangle" fill="rgb(50, 246, 186)" points="673,561 841,654.5 1009.5,561"/><polygon id="p143" class="triangle" fill="rgb(240, 77, 40)" points="841,654.5 673,654.5 673,561"/><polygon id="p144" class="triangle" fill="rgb(77, 169, 140)" points="673,654.5 757,701 841,654.5"/><polygon id="p145" class="triangle" fill="rgb(253, 93, 49)" points="757,701 673,701 673,654.5"/><polygon id="p146" class="triangle" fill="rgb(46, 233, 187)" points="673,701 715,724.5 757,701"/><polygon id="p147" class="triangle" fill="rgb(70, 174, 143)" points="715,724.5 673,724.5 673,701"/><polygon id="p148" class="triangle" fill="rgb(69, 176, 146)" points="673,724.5 694,736 715,724.5"/><polygon id="p149" class="triangle" fill="rgb(229, 80, 37)" points="673,561 841,467.5 1009.5,561"/><polygon id="p150" class="triangle" fill="rgb(55, 235, 181)" points="841,467.5 673,467.5 673,561"/><polygon id="p151" class="triangle" fill="rgb(225, 111, 37)" points="673,467.5 757,420.5 841,467.5"/><polygon id="p152" class="triangle" fill="rgb(237, 114, 52)" points="757,420.5 673,420.5 673,467.5"/><polygon id="p153" class="triangle" fill="rgb(234, 137, 49)" points="673,420.5 715,397 757,420.5"/><polygon id="p154" class="triangle" fill="rgb(249, 102, 40)" points="715,397 673,397 673,420.5"/><polygon id="p155" class="triangle" fill="rgb(84, 163, 132)" points="673,397 694,385.5 715,397"/><polygon id="p156" class="triangle" fill="rgb(241, 88, 54)" points="694,385.5 673,385.5 673,397"/><polygon id="p157" class="triangle" fill="rgb(227, 117, 60)" points="694,748 683.5,742 673,748"/><polygon id="p158" class="triangle" fill="rgb(61, 239, 173)" points="1030,572.5 1009,572.5 1009.5,561"/><polygon id="p159" class="triangle" fill="rgb(63, 233, 167)" points="1177.5,654.5 1009,654.5 1009.5,748"/><polygon id="p160" class="triangle" fill="rgb(235, 135, 50)" points="1009,654.5 1093,607.5 1177.5,654.5"/><polygon id="p161" class="triangle" fill="rgb(73, 171, 159)" points="1093,607.5 1009,607.5 1009,654.5"/><polygon id="p162" class="triangle" fill="rgb(251, 132, 34)" points="1009,607.5 1051,584 1093,607.5"/><polygon id="p163" class="triangle" fill="rgb(233, 100, 35)" points="1051,584 1009,584 1009,607.5"/><polygon id="p164" class="triangle" fill="rgb(66, 187, 143)" points="1009,584 1030,572.5 1051,584"/><polygon id="p165" class="triangle" fill="rgb(253, 77, 41)" points="1030,572.5 1009,572.5 1009,584"/><polygon id="p166" class="triangle" fill="rgb(235, 120, 50)" points="841,654.5 1009,654.5 1009.5,561"/><polygon id="p167" class="triangle" fill="rgb(56, 240, 191)" points="1009,724.5 988,736 1009.5,748"/><polygon id="p168" class="triangle" fill="rgb(233, 91, 40)" points="1009,654.5 925,701 841,654.5"/><polygon id="p169" class="triangle" fill="rgb(242, 135, 54)" points="925,701 1009,701 1009,654.5"/><polygon id="p170" class="triangle" fill="rgb(239, 95, 54)" points="1009,701 967,724.5 925,701"/><polygon id="p171" class="triangle" fill="rgb(41, 248, 176)" points="967,724.5 1009,724.5 1009,701"/><polygon id="p172" class="triangle" fill="rgb(235, 135, 39)" points="1009,724.5 988,736 967,724.5"/><polygon id="p173" class="triangle" fill="rgb(84, 188, 155)" points="841,748 925,701 1009.5,748"/><polygon id="p174" class="triangle" fill="rgb(244, 77, 39)" points="862,665.5 841,665.5 841,654.5"/><polygon id="p175" class="triangle" fill="rgb(40, 240, 179)" points="925,701 841,701 841,748"/><polygon id="p176" class="triangle" fill="rgb(230, 80, 35)" points="841,701 883,677.5 925,701"/><polygon id="p177" class="triangle" fill="rgb(45, 237, 176)" points="883,677.5 841,677.5 841,701"/><polygon id="p178" class="triangle" fill="rgb(235, 88, 44)" points="841,677.5 862,665.5 883,677.5"/><polygon id="p179" class="triangle" fill="rgb(227, 117, 38)" points="862,665.5 841,665.5 841,677.5"/><polygon id="p180" class="triangle" fill="rgb(63, 242, 167)" points="757,701 841,701 841,654.5"/><polygon id="p181" class="triangle" fill="rgb(239, 117, 34)" points="820,736 841,736 841,748"/><polygon id="p182" class="triangle" fill="rgb(238, 111, 62)" points="841,701 799,724.5 757,701"/><polygon id="p183" class="triangle" fill="rgb(250, 81, 59)" points="799,724.5 841,724.5 841,701"/><polygon id="p184" class="triangle" fill="rgb(73, 189, 160)" points="841,724.5 820,736 799,724.5"/><polygon id="p185" class="triangle" fill="rgb(252, 100, 44)" points="820,736 841,736 841,724.5"/><polygon id="p186" class="triangle" fill="rgb(44, 241, 185)" points="757,701 757,748 841,748"/><polygon id="p187" class="triangle" fill="rgb(248, 78, 61)" points="757,748 715,724.5 757,701"/><polygon id="p188" class="triangle" fill="rgb(230, 92, 36)" points="715,724.5 715,748 757,748"/><polygon id="p189" class="triangle" fill="rgb(232, 115, 48)" points="715,748 694,736 715,724.5"/><polygon id="p190" class="triangle" fill="rgb(43, 251, 169)" points="694,736 694,748 715,748"/><polygon id="p191" class="triangle" fill="rgb(89, 176, 155)" points="694,748 683.5,742 694,736"/><polygon id="p192" class="triangle" fill="rgb(246, 99, 50)" points="1346,397 1324.5,385.5 1346,374"/><polygon id="p193" class="triangle" fill="rgb(86, 186, 142)" points="1346,561 1177.5,467.5 1009.5,561"/><polygon id="p194" class="triangle" fill="rgb(73, 184, 145)" points="1177.5,467.5 1346,467.5 1346,561"/><polygon id="p195" class="triangle" fill="rgb(42, 239, 187)" points="1346,467.5 1261.5,420.5 1177.5,467.5"/><polygon id="p196" class="triangle" fill="rgb(86, 172, 146)" points="1261.5,420.5 1346,420.5 1346,467.5"/><polygon id="p197" class="triangle" fill="rgb(87, 172, 144)" points="1346,420.5 1303.5,397 1261.5,420.5"/><polygon id="p198" class="triangle" fill="rgb(47, 227, 176)" points="1303.5,397 1346,397 1346,420.5"/><polygon id="p199" class="triangle" fill="rgb(88, 168, 136)" points="1346,397 1324.5,385.5 1303.5,397"/><polygon id="p200" class="triangle" fill="rgb(57, 226, 190)" points="1303.5,397 1303.5,374 1346,374"/><polygon id="p201" class="triangle" fill="rgb(91, 166, 142)" points="1009,537.5 1030,549 1009.5,561"/><polygon id="p202" class="triangle" fill="rgb(45, 240, 182)" points="1177.5,467.5 1177.5,374 1009.5,374"/><polygon id="p203" class="triangle" fill="rgb(48, 251, 173)" points="1177.5,374 1261.5,420.5 1177.5,467.5"/><polygon id="p204" class="triangle" fill="rgb(232, 131, 36)" points="1261.5,420.5 1261.5,374 1177.5,374"/><polygon id="p205" class="triangle" fill="rgb(250, 91, 51)" points="1261.5,374 1303.5,397 1261.5,420.5"/><polygon id="p206" class="triangle" fill="rgb(240, 136, 55)" points="1303.5,397 1303.5,374 1261.5,374"/><polygon id="p207" class="triangle" fill="rgb(60, 225, 182)" points="1009.5,374 841,467.5 1009.5,561"/><polygon id="p208" class="triangle" fill="rgb(235, 75, 55)" points="967,397 967,374 1009.5,374"/><polygon id="p209" class="triangle" fill="rgb(36, 249, 168)" points="841,374 757,420.5 841,467.5"/><polygon id="p210" class="triangle" fill="rgb(44, 233, 185)" points="757,420.5 757,374 841,374"/><polygon id="p211" class="triangle" fill="rgb(246, 83, 57)" points="757,374 715,397 757,420.5"/><polygon id="p212" class="triangle" fill="rgb(228, 121, 46)" points="715,397 715,374 757,374"/><polygon id="p213" class="triangle" fill="rgb(80, 161, 150)" points="715,374 694,385.5 715,397"/><polygon id="p214" class="triangle" fill="rgb(236, 104, 57)" points="925,420.5 841,420.5 841,467.5"/><polygon id="p215" class="triangle" fill="rgb(244, 83, 36)" points="925,420.5 925,374 841,374"/><polygon id="p216" class="triangle" fill="rgb(89, 179, 132)" points="925,374 967,397 925,420.5"/><polygon id="p217" class="triangle" fill="rgb(58, 252, 176)" points="967,397 967,374 925,374"/><polygon id="p218" class="triangle" fill="rgb(34, 253, 185)" points="925,420.5 841,420.5 841,374"/><polygon id="p219" class="triangle" fill="rgb(242, 91, 57)" points="1335,181 1335,187 1346,187"/><polygon id="p220" class="triangle" fill="rgb(245, 76, 45)" points="1177,104.5 1187.5,98.5 1177.5,93.5"/><polygon id="p221" class="triangle" fill="rgb(229, 111, 58)" points="1261.5,140 1177,140 1177.5,187"/><polygon id="p222" class="triangle" fill="rgb(38, 227, 189)" points="1177,140 1219,116.5 1261.5,140"/><polygon id="p223" class="triangle" fill="rgb(244, 115, 45)" points="1219,116.5 1177,116.5 1177,140"/><polygon id="p224" class="triangle" fill="rgb(245, 89, 38)" points="1177,116.5 1198,104.5 1219,116.5"/><polygon id="p225" class="triangle" fill="rgb(244, 77, 50)" points="1198,104.5 1177,104.5 1177,116.5"/><polygon id="p226" class="triangle" fill="rgb(224, 121, 55)" points="1177,104.5 1187.5,98.5 1198,104.5"/><polygon id="p227" class="triangle" fill="rgb(79, 176, 138)" points="1261.5,187 1219,163.5 1177.5,187"/><polygon id="p228" class="triangle" fill="rgb(44, 235, 173)" points="1261,163.5 1240,151.5 1261.5,140"/><polygon id="p229" class="triangle" fill="rgb(225, 94, 44)" points="1219,163.5 1261,163.5 1261.5,187"/><polygon id="p230" class="triangle" fill="rgb(236, 90, 44)" points="1261,163.5 1240,151.5 1219,163.5"/><polygon id="p231" class="triangle" fill="rgb(249, 119, 47)" points="1261.5,187 1303.5,163.5 1261.5,140"/><polygon id="p232" class="triangle" fill="rgb(250, 122, 40)" points="1303.5,163.5 1303.5,187 1261.5,187"/><polygon id="p233" class="triangle" fill="rgb(232, 92, 49)" points="1303.5,187 1324.5,175 1303.5,163.5"/><polygon id="p234" class="triangle" fill="rgb(249, 101, 58)" points="1324.5,175 1324.5,187 1303.5,187"/><polygon id="p235" class="triangle" fill="rgb(226, 117, 34)" points="1324.5,187 1335,181 1324.5,175"/><polygon id="p236" class="triangle" fill="rgb(239, 120, 43)" points="1335,187 1329.5,184 1324.5,187"/><polygon id="p237" class="triangle" fill="rgb(244, 114, 36)" points="1335,187 1329.5,184 1335,181"/><polygon id="p238" class="triangle" fill="rgb(52, 231, 179)" points="1093,233.5 1093,187 1009.5,187"/><polygon id="p239" class="triangle" fill="rgb(39, 227, 189)" points="1346,210 1324.5,198.5 1346,187"/><polygon id="p240" class="triangle" fill="rgb(75, 176, 141)" points="1346,280.5 1261.5,233.5 1177.5,280.5"/><polygon id="p241" class="triangle" fill="rgb(224, 108, 44)" points="1261.5,233.5 1346,233.5 1346,280.5"/><polygon id="p242" class="triangle" fill="rgb(250, 119, 41)" points="1346,233.5 1303.5,210 1261.5,233.5"/><polygon id="p243" class="triangle" fill="rgb(249, 79, 51)" points="1303.5,210 1346,210 1346,233.5"/><polygon id="p244" class="triangle" fill="rgb(39, 226, 177)" points="1324.5,198.5 1324.5,210 1303.5,210"/><polygon id="p245" class="triangle" fill="rgb(243, 81, 56)" points="1303.5,210 1303.5,187 1346,187"/><polygon id="p246" class="triangle" fill="rgb(72, 164, 157)" points="1177.5,187 1261.5,233.5 1177.5,280.5"/><polygon id="p247" class="triangle" fill="rgb(83, 179, 148)" points="1324.5,198.5 1324.5,210 1346,210"/><polygon id="p248" class="triangle" fill="rgb(238, 121, 49)" points="1261.5,233.5 1261.5,187 1177.5,187"/><polygon id="p249" class="triangle" fill="rgb(227, 125, 36)" points="1261.5,187 1303.5,210 1261.5,233.5"/><polygon id="p250" class="triangle" fill="rgb(229, 115, 35)" points="1303.5,187 1282,198.5 1261.5,187"/><polygon id="p251" class="triangle" fill="rgb(75, 169, 160)" points="1303.5,187 1282,198.5 1303.5,210"/><polygon id="p252" class="triangle" fill="rgb(85, 176, 135)" points="1177.5,187 1093,233.5 1177.5,280.5"/><polygon id="p253" class="triangle" fill="rgb(62, 238, 182)" points="1093,187 1135,210 1177.5,187"/><polygon id="p254" class="triangle" fill="rgb(238, 122, 58)" points="1135,210 1093,210 1093,233.5"/><polygon id="p255" class="triangle" fill="rgb(234, 114, 34)" points="1135,210 1093,210 1093,187"/><polygon id="p256" class="triangle" fill="rgb(239, 134, 50)" points="1093,140 1177,140 1177.5,93.5"/><polygon id="p257" class="triangle" fill="rgb(83, 170, 138)" points="1177,140 1135,163.5 1177.5,187"/><polygon id="p258" class="triangle" fill="rgb(47, 239, 187)" points="1135,163.5 1135,140 1093,140"/><polygon id="p259" class="triangle" fill="rgb(35, 232, 192)" points="1135,140 1156,151.5 1177,140"/><polygon id="p260" class="triangle" fill="rgb(52, 230, 169)" points="1135,151.5 1145.5,157 1135,163.5"/><polygon id="p261" class="triangle" fill="rgb(75, 166, 132)" points="1156,151.5 1135,151.5 1135,140"/><polygon id="p262" class="triangle" fill="rgb(241, 101, 41)" points="1135,151.5 1145.5,157 1156,151.5"/><polygon id="p263" class="triangle" fill="rgb(83, 179, 142)" points="1093,140 1093,187 1177.5,187"/><polygon id="p264" class="triangle" fill="rgb(240, 109, 37)" points="1093,187 1051,163.5 1093,140"/><polygon id="p265" class="triangle" fill="rgb(251, 87, 56)" points="1051,187 1072,175 1093,187"/><polygon id="p266" class="triangle" fill="rgb(237, 86, 60)" points="1072,175 1051,175 1051,163.5"/><polygon id="p267" class="triangle" fill="rgb(51, 248, 189)" points="1072,175 1051,175 1051,187"/><polygon id="p268" class="triangle" fill="rgb(234, 123, 34)" points="1009,397 1030,385.5 1009.5,374"/><polygon id="p269" class="triangle" fill="rgb(237, 93, 53)" points="1009,467.5 1093,514 1177.5,467.5"/><polygon id="p270" class="triangle" fill="rgb(69, 181, 146)" points="1093,514 1009,514 1009,467.5"/><polygon id="p271" class="triangle" fill="rgb(244, 99, 44)" points="1009,514 1051,537.5 1093,514"/><polygon id="p272" class="triangle" fill="rgb(241, 124, 51)" points="1051,537.5 1009,537.5 1009,514"/><polygon id="p273" class="triangle" fill="rgb(244, 88, 56)" points="1030,549 1030,537 1051,537.5"/><polygon id="p274" class="triangle" fill="rgb(93, 173, 148)" points="1030,549 1030,537 1009,537.5"/><polygon id="p275" class="triangle" fill="rgb(54, 247, 167)" points="1009,467.5 1093,420.5 1177.5,467.5"/><polygon id="p276" class="triangle" fill="rgb(249, 120, 54)" points="1093,420.5 1009,420.5 1009,467.5"/><polygon id="p277" class="triangle" fill="rgb(38, 225, 195)" points="1009,420.5 1051,397 1093,420.5"/><polygon id="p278" class="triangle" fill="rgb(247, 127, 55)" points="1051,397 1009,397 1009,420.5"/><polygon id="p279" class="triangle" fill="rgb(87, 187, 139)" points="1009,397 1030,385.5 1051,397"/><polygon id="p280" class="triangle" fill="rgb(250, 124, 41)" points="694,374 704.5,379.5 715,374"/><polygon id="p281" class="triangle" fill="rgb(34, 249, 185)" points="694,374 704.5,379.5 694,385.5"/></svg>